<svg width="54" height="29" viewBox="0 0 54 29" fill="none" xmlns="http://www.w3.org/2000/svg">
<path d="M1 14C1 12.8954 1.89543 12 3 12H54V16H3C1.89543 16 1 15.1046 1 14V14Z" fill="white"/>
<path d="M1.21564 15.3578C0.544259 14.6864 0.544259 13.5979 1.21564 12.9265L14.1421 1.54972e-05L16.5734 2.43129L3.64691 15.3578C2.97553 16.0292 1.88702 16.0292 1.21564 15.3578V15.3578Z" fill="white"/>
<path d="M1.21564 13.2156C1.88701 12.5443 2.97553 12.5443 3.64691 13.2156L16.5734 26.1421L14.1421 28.5734L1.21564 15.6469C0.544259 14.9755 0.544259 13.887 1.21564 13.2156V13.2156Z" fill="white"/>
</svg>
